<svg xmlns="http://www.w3.org/2000/svg" version="1.1" xmlns:xlink="http://www.w3.org/1999/xlink" xmlns:svgjs="http://svgjs.dev/svgjs" width="2000" height="525" viewBox="0 0 2000 525"><g transform="matrix(1,0,0,1,-1.2121212121212466,1.1897400612957654)"><svg viewBox="0 0 396 104" data-background-color="#528265" preserveAspectRatio="xMidYMid meet" height="525" width="2000" xmlns="http://www.w3.org/2000/svg" xmlns:xlink="http://www.w3.org/1999/xlink"><g id="tight-bounds" transform="matrix(1,0,0,1,0.2400000000000091,-0.23568184071382348)"><svg viewBox="0 0 395.52 104.47136368142762" height="104.47136368142762" width="395.52"><g><svg viewBox="0 0 634.2673013572788 167.53329771271726" height="104.47136368142762" width="395.52"><g><rect width="10.93221829384666" height="121.83137785910334" x="199.19671056645137" y="22.850959926806958" fill="#00aa6c" opacity="1" stroke-width="0" stroke="transparent" fill-opacity="1" class="rect-qz-0" data-fill-palette-color="primary" rx="1%" id="qz-0" data-palette-color="#00aa6c"></rect></g><g transform="matrix(1,0,0,1,238.74730135727881,23.154023055809695)"><svg viewBox="0 0 395.52 121.22525160109787" height="121.22525160109787" width="395.52"><g id="textblocktransform"><svg viewBox="0 0 395.52 121.22525160109787" height="121.22525160109787" width="395.52" id="textblock"><g><svg viewBox="0 0 395.52 121.22525160109787" height="121.22525160109787" width="395.52"><g transform="matrix(1,0,0,1,0,0)"><svg width="395.52" viewBox="2.1 -33.15 110.79 33.5" height="121.22525160109787" data-palette-color="#00aa6c"><g class="wordmark-text-0" data-fill-palette-color="primary" id="text-0"><path d="M13.35-32.3Q16.8-32.3 20.5-30.8L20.5-30.8 19.85-26.95 19.15-26.75Q17.7-27.85 16.07-28.45 14.45-29.05 12.85-29.05L12.85-29.05Q11-29.05 9.63-28.3 8.25-27.55 7.53-26.35 6.8-25.15 6.8-23.85L6.8-23.85Q6.8-22.5 7.63-21.48 8.45-20.45 9.7-19.7 10.95-18.95 13.1-17.9L13.1-17.9Q15.8-16.65 17.45-15.58 19.1-14.5 20.28-12.85 21.45-11.2 21.45-8.85L21.45-8.85Q21.45-6.35 20.1-4.25 18.75-2.15 16.3-0.9 13.85 0.35 10.7 0.35L10.7 0.35Q8.6 0.35 6.33-0.23 4.05-0.8 2.1-1.9L2.1-1.9 2.6-6 3.15-6.25Q4.9-4.55 7.03-3.73 9.15-2.9 11.1-2.9L11.1-2.9Q13-2.9 14.48-3.65 15.95-4.4 16.73-5.65 17.5-6.9 17.5-8.3L17.5-8.3Q17.5-10.4 15.9-11.68 14.3-12.95 11.05-14.45L11.05-14.45Q8.4-15.75 6.8-16.78 5.2-17.8 4.05-19.43 2.9-21.05 2.9-23.4L2.9-23.4Q2.9-25.85 4.23-27.9 5.55-29.95 7.93-31.13 10.3-32.3 13.35-32.3L13.35-32.3ZM35.15-23.3Q38.4-23.3 40.27-21.7 42.15-20.1 42.15-17.3L42.15-17.3Q42.15-16.45 41.85-11.15L41.85-11.15Q41.55-5.85 41.55-4.95L41.55-4.95Q41.55-3.85 41.9-3.43 42.25-3 43.1-3L43.1-3Q43.85-3 44.8-3.3L44.8-3.3 45.2-2.95 44.8-0.7Q43.35 0.15 41.95 0.3L41.95 0.3Q40.4 0.15 39.47-0.8 38.55-1.75 38.5-3.4L38.5-3.4 38.15-3.4Q35.45-0.65 32.8 0.35L32.8 0.35Q29.45 0.35 27.57-1.33 25.7-3 25.7-5.9L25.7-5.9Q25.7-8.1 26.87-9.4 28.05-10.7 30.35-11.25L30.35-11.25 38.45-13.15 38.5-16.4Q38.5-18.35 37.47-19.4 36.45-20.45 34.55-20.45L34.55-20.45Q32.85-20.45 31.15-19.65 29.45-18.85 27.5-17.15L27.5-17.15 27.1-17.35 26.6-20.2Q30.75-23.3 35.15-23.3L35.15-23.3ZM38.4-10.6L31.15-8.85Q30.15-8.55 29.7-8.03 29.25-7.5 29.25-6.45L29.25-6.45Q29.25-4.8 30.17-3.88 31.1-2.95 32.65-2.95L32.65-2.95Q35.4-2.95 38.25-6.5L38.25-6.5 38.4-10.6ZM64.9 0L65.15-15.55Q65.2-17.6 64.2-18.75 63.2-19.9 61.25-19.9L61.25-19.9Q58.1-19.9 54.45-16.35L54.45-16.35 54.45-10.05 54.65 0 50.7 0 50.95-9.7 50.75-22.65 54.5-23 54.5-19.65 54.8-19.65Q57.9-22.4 61.15-23.2L61.15-23.2Q64.9-23.2 66.87-21.45 68.85-19.7 68.8-16.45L68.8-16.45 68.7-9.95 68.9 0 64.9 0ZM83.69-3.05Q85.34-3.05 87.29-4.05L87.29-4.05 87.74-3.75 87.34-1.15Q84.64 0.1 82.34 0.3L82.34 0.3Q79.49-0.25 78.24-1.8 76.99-3.35 76.99-6.3L76.99-6.3 77.14-9.85 77.09-20.2 73.94-20.2 73.74-20.5 73.99-22.85 77.04-22.85 77.04-26.55 80.49-28.05 80.89-27.7 80.79-22.85 87.59-22.85 87.79-22.55 87.54-20.2 80.79-20.2 80.54-6.65Q80.49-4.65 81.24-3.85 81.99-3.05 83.69-3.05L83.69-3.05ZM102.94-22.95Q103.54-22.95 104.24-22.85L104.24-22.85 104.24-19 103.79-18.85Q102.94-19.1 101.94-19.1L101.94-19.1Q100.29-19.1 98.92-17.78 97.54-16.45 96.19-13.55L96.19-13.55 96.14-10.05 96.39 0 92.44 0 92.69-9.7 92.49-22.65 96.24-23 96.19-18.3 96.49-18.3Q97.89-20.8 99.59-21.88 101.29-22.95 102.94-22.95L102.94-22.95ZM108.64 0L108.84-9.7 108.69-22.65 112.54-23 112.44-10.05 112.54 0 108.64 0ZM110.69-33.15Q111.69-33.15 112.29-32.55 112.89-31.95 112.89-30.9L112.89-30.9Q112.89-29.8 112.26-29.15 111.64-28.5 110.54-28.5L110.54-28.5Q109.49-28.5 108.91-29.1 108.34-29.7 108.34-30.8L108.34-30.8Q108.34-31.85 108.96-32.5 109.59-33.15 110.69-33.15L110.69-33.15Z" fill="#00aa6c" data-fill-palette-color="primary"></path></g></svg></g></svg></g></svg></g></svg></g><g><svg viewBox="0 0 170.5783380694706 167.53329771271726" height="167.53329771271726" width="170.5783380694706"><g><svg xmlns="http://www.w3.org/2000/svg" xmlns:xlink="http://www.w3.org/1999/xlink" version="1.1" x="0" y="0" viewBox="19.582 20.125 60.836000000000006 59.75" enable-background="new 0 0 100 100" xml:space="preserve" height="167.53329771271726" width="170.5783380694706" class="icon-icon-0" data-fill-palette-color="accent" id="icon-0"><g fill="#00aa6c" data-fill-palette-color="accent"><path d="M29.332 65.625c-4.832 0-8.75 3.918-8.75 8.75v5.5h17.5v-5.5C38.082 69.543 34.165 65.625 29.332 65.625z" fill="#00aa6c" data-fill-palette-color="accent"></path><circle cx="29.332" cy="58.625" r="6.0" fill="#00aa6c" data-fill-palette-color="accent"></circle><path d="M49.832 65.625c-4.832 0-8.75 3.918-8.75 8.75v5.5h17.5v-5.5C58.582 69.543 54.665 65.625 49.832 65.625z" fill="#00aa6c" data-fill-palette-color="accent"></path><circle cx="49.832" cy="58.625" r="6.0" fill="#00aa6c" data-fill-palette-color="accent"></circle><path d="M70.332 65.625c-4.832 0-8.75 3.918-8.75 8.75v5.5h17.5v-5.5C79.082 69.543 75.165 65.625 70.332 65.625z" fill="#00aa6c" data-fill-palette-color="accent"></path><circle cx="70.332" cy="58.625" r="6.0" fill="#00aa6c" data-fill-palette-color="accent"></circle><path d="M19.582 20.125v29.571h60.836V20.125H19.582zM78.418 47.696H21.582V22.125h56.836V47.696z" fill="#00aa6c" data-fill-palette-color="accent"></path><rect x="51.332" y="27.875" width="19" height="2" fill="#00aa6c" data-fill-palette-color="accent"></rect><rect x="51.332" y="38.125" width="19" height="2" fill="#00aa6c" data-fill-palette-color="accent"></rect><path d="M35.332 44.66c5.385 0 9.75-4.365 9.75-9.75h-9.75v-9.75c-5.385 0-9.75 4.365-9.75 9.75S29.947 44.66 35.332 44.66z" fill="#00aa6c" data-fill-palette-color="accent"></path></g></svg></g></svg></g></svg></g><defs></defs></svg><rect width="395.52" height="104.47136368142762" fill="none" stroke="none" visibility="hidden"></rect></g></svg></g></svg>